<svg xmlns="http://www.w3.org/2000/svg" width="900" height="500" viewBox="0 0 900 500"><rect width="900" height="500" fill="#FFFDF6"/><line x1="100" y1="0" x2="100" y2="500" stroke="#EFEAD9" stroke-width="1"/><line x1="200" y1="0" x2="200" y2="500" stroke="#EFEAD9" stroke-width="1"/><line x1="300" y1="0" x2="300" y2="500" stroke="#EFEAD9" stroke-width="1"/><line x1="400" y1="0" x2="400" y2="500" stroke="#EFEAD9" stroke-width="1"/><line x1="500" y1="0" x2="500" y2="500" stroke="#EFEAD9" stroke-width="1"/><line x1="600" y1="0" x2="600" y2="500" stroke="#EFEAD9" stroke-width="1"/><line x1="700" y1="0" x2="700" y2="500" stroke="#EFEAD9" stroke-width="1"/><line x1="800" y1="0" x2="800" y2="500" stroke="#EFEAD9" stroke-width="1"/><line x1="0" y1="100" x2="900" y2="100" stroke="#EFEAD9" stroke-width="1"/><line x1="0" y1="200" x2="900" y2="200" stroke="#EFEAD9" stroke-width="1"/><line x1="0" y1="300" x2="900" y2="300" stroke="#EFEAD9" stroke-width="1"/><line x1="0" y1="400" x2="900" y2="400" stroke="#EFEAD9" stroke-width="1"/><rect x="60" y="52" width="230" height="34" rx="17" fill="#E9D6F8" stroke="#1B1A17"/><text x="76" y="75" font-family="Inter,Arial" font-size="15" font-weight="700" fill="#1B1A17">INFOGRAPHIC</text><text x="700" y="75" font-family="Inter,Arial" font-size="13" fill="#716E64">MAT 221 Flow Docs</text><circle cx="450" cy="240" r="150" fill="#E9D6F8" opacity="0.8" stroke="#1B1A17" stroke-width="3"/><circle cx="450" cy="240" r="70" fill="#FFFDF6" stroke="#1B1A17" stroke-width="3"/><line x1="450" y1="240" x2="600" y2="240" stroke="#E4572E" stroke-width="3"/><text x="525" y="228" font-family="Inter,Arial" font-size="18" font-weight="600" fill="#E4572E" text-anchor="start">R</text><line x1="450" y1="240" x2="450" y2="170" stroke="#2F7A46" stroke-width="3"/><text x="460" y="200" font-family="Inter,Arial" font-size="18" font-weight="600" fill="#2F7A46" text-anchor="start">r</text><text x="450" y="425" font-family="Inter,Arial" font-size="16" font-weight="600" fill="#1B1A17" text-anchor="middle">V = π∫(R² − r²)dx — square BOTH radii, never (R−r)</text><text x="60" y="466" font-family="Georgia,serif" font-size="30" fill="#1B1A17">Washer geometry</text><text x="600" y="466" font-family="Inter,Arial" font-size="15" fill="#716E64">R outer, r inner</text></svg>