<svg xmlns="http://www.w3.org/2000/svg" width="900" height="500" viewBox="0 0 900 500"><rect width="900" height="500" fill="#FFFDF6"/><line x1="100" y1="0" x2="100" y2="500" stroke="#EFEAD9" stroke-width="1"/><line x1="200" y1="0" x2="200" y2="500" stroke="#EFEAD9" stroke-width="1"/><line x1="300" y1="0" x2="300" y2="500" stroke="#EFEAD9" stroke-width="1"/><line x1="400" y1="0" x2="400" y2="500" stroke="#EFEAD9" stroke-width="1"/><line x1="500" y1="0" x2="500" y2="500" stroke="#EFEAD9" stroke-width="1"/><line x1="600" y1="0" x2="600" y2="500" stroke="#EFEAD9" stroke-width="1"/><line x1="700" y1="0" x2="700" y2="500" stroke="#EFEAD9" stroke-width="1"/><line x1="800" y1="0" x2="800" y2="500" stroke="#EFEAD9" stroke-width="1"/><line x1="0" y1="100" x2="900" y2="100" stroke="#EFEAD9" stroke-width="1"/><line x1="0" y1="200" x2="900" y2="200" stroke="#EFEAD9" stroke-width="1"/><line x1="0" y1="300" x2="900" y2="300" stroke="#EFEAD9" stroke-width="1"/><line x1="0" y1="400" x2="900" y2="400" stroke="#EFEAD9" stroke-width="1"/><rect x="60" y="52" width="230" height="34" rx="17" fill="#E9D6F8" stroke="#1B1A17"/><text x="76" y="75" font-family="Inter,Arial" font-size="15" font-weight="700" fill="#1B1A17">INFOGRAPHIC</text><text x="700" y="75" font-family="Inter,Arial" font-size="13" fill="#716E64">MAT 221 Flow Docs</text><line x1="80" y1="400" x2="850" y2="400" stroke="#1B1A17" stroke-width="2"/><path d="M110 110 C 200 300, 400 370, 840 390" stroke="#6B4FA3" stroke-width="4" fill="none"/><path d="M110 110 C 170 240, 300 330, 520 362 L520 400 L110 400 Z" fill="#E9D6F8" opacity="0.75"/><line x1="520" y1="362" x2="520" y2="400" stroke="#E4572E" stroke-width="3"/><text x="515" y="425" font-family="Inter,Arial" font-size="16" font-weight="600" fill="#E4572E" text-anchor="start">t</text><line x1="540" y1="300" x2="700" y2="300" stroke="#E4572E" stroke-width="3"/><polygon points="705,300 690,293 690,307" fill="#E4572E"/><text x="715" y="305" font-family="Inter,Arial" font-size="16" font-weight="600" fill="#E4572E" text-anchor="start">t → ∞</text><text x="300" y="300" font-family="Inter,Arial" font-size="20" font-weight="600" fill="#6B4FA3" text-anchor="start">A(t)</text><text x="60" y="466" font-family="Georgia,serif" font-size="30" fill="#1B1A17">Cut off, then limit</text><text x="600" y="466" font-family="Inter,Arial" font-size="15" fill="#716E64">does the area settle?</text></svg>