<svg xmlns="http://www.w3.org/2000/svg" width="900" height="500" viewBox="0 0 900 500"><rect width="900" height="500" fill="#FFFDF6"/><line x1="100" y1="0" x2="100" y2="500" stroke="#EFEAD9" stroke-width="1"/><line x1="200" y1="0" x2="200" y2="500" stroke="#EFEAD9" stroke-width="1"/><line x1="300" y1="0" x2="300" y2="500" stroke="#EFEAD9" stroke-width="1"/><line x1="400" y1="0" x2="400" y2="500" stroke="#EFEAD9" stroke-width="1"/><line x1="500" y1="0" x2="500" y2="500" stroke="#EFEAD9" stroke-width="1"/><line x1="600" y1="0" x2="600" y2="500" stroke="#EFEAD9" stroke-width="1"/><line x1="700" y1="0" x2="700" y2="500" stroke="#EFEAD9" stroke-width="1"/><line x1="800" y1="0" x2="800" y2="500" stroke="#EFEAD9" stroke-width="1"/><line x1="0" y1="100" x2="900" y2="100" stroke="#EFEAD9" stroke-width="1"/><line x1="0" y1="200" x2="900" y2="200" stroke="#EFEAD9" stroke-width="1"/><line x1="0" y1="300" x2="900" y2="300" stroke="#EFEAD9" stroke-width="1"/><line x1="0" y1="400" x2="900" y2="400" stroke="#EFEAD9" stroke-width="1"/><rect x="60" y="52" width="230" height="34" rx="17" fill="#E9D6F8" stroke="#1B1A17"/><text x="76" y="75" font-family="Inter,Arial" font-size="15" font-weight="700" fill="#1B1A17">INFOGRAPHIC</text><text x="700" y="75" font-family="Inter,Arial" font-size="13" fill="#716E64">MAT 221 Flow Docs</text><rect x="330" y="110" width="240" height="46" rx="10" fill="#E9D6F8" stroke="#1B1A17" stroke-width="2"/><rect x="330" y="166" width="240" height="46" rx="10" fill="#FFFDF6" stroke="#1B1A17" stroke-width="2"/><rect x="330" y="222" width="240" height="46" rx="10" fill="#E9D6F8" stroke="#1B1A17" stroke-width="2"/><rect x="330" y="278" width="240" height="46" rx="10" fill="#FFFDF6" stroke="#1B1A17" stroke-width="2"/><rect x="330" y="334" width="240" height="46" rx="10" fill="#E9D6F8" stroke="#1B1A17" stroke-width="2"/><text x="350" y="140" font-family="Inter,Arial" font-size="17" font-weight="600" fill="#1B1A17" text-anchor="start">L  logs</text><text x="350" y="196" font-family="Inter,Arial" font-size="17" font-weight="600" fill="#1B1A17" text-anchor="start">I  inverse trig</text><text x="350" y="252" font-family="Inter,Arial" font-size="17" font-weight="600" fill="#1B1A17" text-anchor="start">A  algebraic</text><text x="350" y="308" font-family="Inter,Arial" font-size="17" font-weight="600" fill="#1B1A17" text-anchor="start">T  trig</text><text x="350" y="364" font-family="Inter,Arial" font-size="17" font-weight="600" fill="#1B1A17" text-anchor="start">E  exponential</text><line x1="620" y1="130" x2="620" y2="360" stroke="#E4572E" stroke-width="4"/><polygon points="620,372 611,352 629,352" fill="#E4572E"/><text x="640" y="250" font-family="Inter,Arial" font-size="16" font-weight="600" fill="#E4572E" text-anchor="start">differentiate DOWN: choose u</text><text x="250" y="250" font-family="Inter,Arial" font-size="15" font-weight="600" fill="#716E64" text-anchor="end">u dies / simplifies</text><text x="60" y="466" font-family="Georgia,serif" font-size="30" fill="#1B1A17">LIATE ladder</text><text x="600" y="466" font-family="Inter,Arial" font-size="15" fill="#716E64">u = highest rung present; dv = the rest</text></svg>