<svg xmlns="http://www.w3.org/2000/svg" width="900" height="500" viewBox="0 0 900 500"><rect width="900" height="500" fill="#FFFDF6"/><line x1="100" y1="0" x2="100" y2="500" stroke="#EFEAD9" stroke-width="1"/><line x1="200" y1="0" x2="200" y2="500" stroke="#EFEAD9" stroke-width="1"/><line x1="300" y1="0" x2="300" y2="500" stroke="#EFEAD9" stroke-width="1"/><line x1="400" y1="0" x2="400" y2="500" stroke="#EFEAD9" stroke-width="1"/><line x1="500" y1="0" x2="500" y2="500" stroke="#EFEAD9" stroke-width="1"/><line x1="600" y1="0" x2="600" y2="500" stroke="#EFEAD9" stroke-width="1"/><line x1="700" y1="0" x2="700" y2="500" stroke="#EFEAD9" stroke-width="1"/><line x1="800" y1="0" x2="800" y2="500" stroke="#EFEAD9" stroke-width="1"/><line x1="0" y1="100" x2="900" y2="100" stroke="#EFEAD9" stroke-width="1"/><line x1="0" y1="200" x2="900" y2="200" stroke="#EFEAD9" stroke-width="1"/><line x1="0" y1="300" x2="900" y2="300" stroke="#EFEAD9" stroke-width="1"/><line x1="0" y1="400" x2="900" y2="400" stroke="#EFEAD9" stroke-width="1"/><rect x="60" y="52" width="230" height="34" rx="17" fill="#E9D6F8" stroke="#1B1A17"/><text x="76" y="75" font-family="Inter,Arial" font-size="15" font-weight="700" fill="#1B1A17">INFOGRAPHIC</text><text x="700" y="75" font-family="Inter,Arial" font-size="13" fill="#716E64">MAT 221 Flow Docs</text><rect x="360" y="95" width="180" height="50" rx="12" fill="#E9D6F8" stroke="#1B1A17" stroke-width="2"/><text x="450" y="126" font-family="Inter,Arial" font-size="15" font-weight="600" fill="#1B1A17" text-anchor="middle">Σ aₙ : which test?</text><polygon points="450,170 570,205 450,240 330,205" fill="#FFFDF6" stroke="#1B1A17" stroke-width="2"/><polygon points="450,265 570,300 450,335 330,300" fill="#FFFDF6" stroke="#1B1A17" stroke-width="2"/><polygon points="450,360 570,395 450,430 330,395" fill="#FFFDF6" stroke="#1B1A17" stroke-width="2"/><text x="450" y="210" font-family="Inter,Arial" font-size="14" font-weight="600" fill="#1B1A17" text-anchor="middle">factorials / nⁿ ?</text><text x="450" y="305" font-family="Inter,Arial" font-size="14" font-weight="600" fill="#1B1A17" text-anchor="middle">rational-like ?</text><text x="450" y="400" font-family="Inter,Arial" font-size="14" font-weight="600" fill="#1B1A17" text-anchor="middle">alternating signs ?</text><rect x="640" y="180" width="180" height="46" rx="10" fill="#E9D6F8" stroke="#1B1A17"/><text x="730" y="208" font-family="Inter,Arial" font-size="15" font-weight="600" fill="#1B1A17" text-anchor="middle">Ratio / Root</text><rect x="640" y="275" width="180" height="46" rx="10" fill="#E9D6F8" stroke="#1B1A17"/><text x="730" y="303" font-family="Inter,Arial" font-size="15" font-weight="600" fill="#1B1A17" text-anchor="middle">Comparison vs p</text><rect x="640" y="370" width="180" height="46" rx="10" fill="#E9D6F8" stroke="#1B1A17"/><text x="730" y="398" font-family="Inter,Arial" font-size="15" font-weight="600" fill="#1B1A17" text-anchor="middle">AST</text><line x1="570" y1="205" x2="635" y2="193" stroke="#1B1A17" stroke-width="2"/><polygon points="640,193 625,186 627,200" fill="#1B1A17"/><line x1="570" y1="300" x2="635" y2="288" stroke="#1B1A17" stroke-width="2"/><polygon points="640,288 625,281 627,295" fill="#1B1A17"/><line x1="570" y1="395" x2="635" y2="383" stroke="#1B1A17" stroke-width="2"/><polygon points="640,383 625,376 627,390" fill="#1B1A17"/><text x="180" y="210" font-family="Inter,Arial" font-size="14" font-weight="600" fill="#716E64" text-anchor="start">first: divergence test (terms → 0 ?)</text><text x="60" y="466" font-family="Georgia,serif" font-size="30" fill="#1B1A17">Choosing a test</text><text x="600" y="466" font-family="Inter,Arial" font-size="15" fill="#716E64">decision order saves time</text></svg>