<svg xmlns="http://www.w3.org/2000/svg" width="900" height="500" viewBox="0 0 900 500"><rect width="900" height="500" fill="#FFFDF6"/><line x1="100" y1="0" x2="100" y2="500" stroke="#EFEAD9" stroke-width="1"/><line x1="200" y1="0" x2="200" y2="500" stroke="#EFEAD9" stroke-width="1"/><line x1="300" y1="0" x2="300" y2="500" stroke="#EFEAD9" stroke-width="1"/><line x1="400" y1="0" x2="400" y2="500" stroke="#EFEAD9" stroke-width="1"/><line x1="500" y1="0" x2="500" y2="500" stroke="#EFEAD9" stroke-width="1"/><line x1="600" y1="0" x2="600" y2="500" stroke="#EFEAD9" stroke-width="1"/><line x1="700" y1="0" x2="700" y2="500" stroke="#EFEAD9" stroke-width="1"/><line x1="800" y1="0" x2="800" y2="500" stroke="#EFEAD9" stroke-width="1"/><line x1="0" y1="100" x2="900" y2="100" stroke="#EFEAD9" stroke-width="1"/><line x1="0" y1="200" x2="900" y2="200" stroke="#EFEAD9" stroke-width="1"/><line x1="0" y1="300" x2="900" y2="300" stroke="#EFEAD9" stroke-width="1"/><line x1="0" y1="400" x2="900" y2="400" stroke="#EFEAD9" stroke-width="1"/><rect x="60" y="52" width="230" height="34" rx="17" fill="#E9D6F8" stroke="#1B1A17"/><text x="76" y="75" font-family="Inter,Arial" font-size="15" font-weight="700" fill="#1B1A17">INFOGRAPHIC</text><text x="700" y="75" font-family="Inter,Arial" font-size="13" fill="#716E64">MAT 221 Flow Docs</text><polygon points="250,380 650,380 650,140" fill="#E9D6F8" opacity="0.5" stroke="#1B1A17" stroke-width="3"/><rect x="620" y="350" width="30" height="30" fill="none" stroke="#1B1A17" stroke-width="2"/><path d="M310 380 A 60 60 0 0 0 300 350" fill="none" stroke="#E4572E" stroke-width="3"/><text x="325" y="368" font-family="Inter,Arial" font-size="18" font-weight="600" fill="#E4572E" text-anchor="start">θ</text><text x="450" y="408" font-family="Inter,Arial" font-size="16" font-weight="600" fill="#1B1A17" text-anchor="middle">a  (adjacent)</text><text x="672" y="265" font-family="Inter,Arial" font-size="16" font-weight="600" fill="#1B1A17" text-anchor="start">x = a·tanθ</text><text x="400" y="245" font-family="Inter,Arial" font-size="17" font-weight="600" fill="#6B4FA3" text-anchor="start">√(a²+x²)</text><text x="450" y="120" font-family="Inter,Arial" font-size="15" font-weight="600" fill="#716E64" text-anchor="middle">x = a sinθ ⇒ hyp→root a cosθ · x = a secθ ⇒ root a tanθ</text><text x="60" y="466" font-family="Georgia,serif" font-size="30" fill="#1B1A17">Reference triangle</text><text x="600" y="466" font-family="Inter,Arial" font-size="15" fill="#716E64">sec-sub: opp x, adj a, hyp root</text></svg>